<svg width="2046" height="1600" viewBox="0 0 2046 1600" fill="none" xmlns="http://www.w3.org/2000/svg">
<g filter="url(#filter0_ii_369_4456)">
<mask id="mask0_369_4456" style="mask-type:alpha" maskUnits="userSpaceOnUse" x="890" y="1039" width="267" height="267">
<circle cx="1023.22" cy="1172.22" r="133.219" fill="#FFC371"/>
</mask>
<g mask="url(#mask0_369_4456)">
<circle cx="1023.22" cy="1172.22" r="133.219" fill="#A870EF"/>
<g opacity="0.8" filter="url(#filter1_f_369_4456)">
<path d="M1248.47 1171.83C1248.47 1245.41 1071.11 1345.61 997.533 1345.61C923.958 1345.61 1013.53 1245.41 1013.53 1171.83C1013.53 1098.26 915.958 1005.11 989.533 1005.11C1063.11 1005.11 1248.47 1098.26 1248.47 1171.83Z" fill="#CF8BF3"/>
</g>
<g opacity="0.8" filter="url(#filter2_f_369_4456)">
<path d="M1328.47 1171.83C1328.47 1245.41 1151.11 1345.61 1077.53 1345.61C1003.96 1345.61 1093.53 1245.41 1093.53 1171.83C1093.53 1098.26 995.958 1005.11 1069.53 1005.11C1143.11 1005.11 1328.47 1098.26 1328.47 1171.83Z" fill="#FDB99B"/>
</g>
</g>
</g>
<mask id="mask1_369_4456" style="mask-type:alpha" maskUnits="userSpaceOnUse" x="624" y="294" width="400" height="689">
<path d="M624 982.882L1023.39 752.321V294.087L624 524.647V982.882Z" fill="#A870EF"/>
</mask>
<g mask="url(#mask1_369_4456)">
<path opacity="0.04" d="M624 982.882L1023.39 752.321V294.087L624 524.647V982.882Z" fill="#F9F8FD"/>
<g opacity="0.24" filter="url(#filter3_f_369_4456)">
<path d="M1620.65 1353.25L824.145 893.436V-20.4277L1620.65 439.383V1353.25Z" fill="#FDB99B"/>
</g>
<g opacity="0.24" filter="url(#filter4_f_369_4456)">
<path d="M823.803 1332.11L27.293 872.303V-41.5605L823.803 418.25V1332.11Z" fill="#A870EF"/>
</g>
</g>
<g filter="url(#filter5_b_369_4456)">
<mask id="mask2_369_4456" style="mask-type:alpha" maskUnits="userSpaceOnUse" x="1023" y="294" width="400" height="689">
<path d="M1422.78 982.882L1023.39 752.321V294.087L1422.78 524.647V982.882Z" fill="#A870EF"/>
</mask>
<g mask="url(#mask2_369_4456)">
<path opacity="0.04" d="M1422.78 982.882L1023.39 752.321V294.087L1422.78 524.647V982.882Z" fill="#F9F8FD"/>
<g opacity="0.24" filter="url(#filter6_f_369_4456)">
<path d="M1223.2 1197.54L2018.8 738.253V-174.577L1223.2 284.714V1197.54Z" fill="#FDB99B"/>
</g>
<g opacity="0.24" filter="url(#filter7_f_369_4456)">
<path d="M427.586 1438.71L1223.19 979.422V66.5918L427.586 525.882V1438.71Z" fill="#A870EF"/>
</g>
</g>
</g>
<mask id="mask3_369_4456" style="mask-type:alpha" maskUnits="userSpaceOnUse" x="870" y="588" width="306" height="307">
<ellipse cx="1023.05" cy="741.617" rx="152.906" ry="152.906" transform="rotate(-90 1023.05 741.617)" fill="#FF5F6D"/>
</mask>
<g mask="url(#mask3_369_4456)">
<ellipse cx="1023.05" cy="741.617" rx="152.906" ry="152.906" transform="rotate(-90 1023.05 741.617)" fill="#FF5F6D"/>
<g filter="url(#filter8_f_369_4456)">
<ellipse cx="1023.04" cy="564.137" rx="192.498" ry="192.498" transform="rotate(-90 1023.04 564.137)" fill="#FFC371"/>
</g>
</g>
<g filter="url(#filter9_b_369_4456)">
<mask id="mask4_369_4456" style="mask-type:alpha" maskUnits="userSpaceOnUse" x="624" y="524" width="400" height="690">
<path d="M1023.39 1213.51L624 982.953V524.719L1023.39 755.279V1213.51Z" fill="#A870EF"/>
</mask>
<g mask="url(#mask4_369_4456)">
<path opacity="0.04" d="M1023.39 1213.51L624 982.953V524.719L1023.39 755.279V1213.51Z" fill="#F9F8FD"/>
<g opacity="0.24" filter="url(#filter10_f_369_4456)">
<path d="M1620.65 1757.27L824.145 1297.46V383.593L1620.65 843.403V1757.27Z" fill="#FDB99B"/>
</g>
<g opacity="0.24" filter="url(#filter11_f_369_4456)">
<path d="M823.803 1332.11L27.293 872.303V-41.5605L823.803 418.25V1332.11Z" fill="#A870EF"/>
</g>
</g>
</g>
<g filter="url(#filter12_b_369_4456)">
<mask id="mask5_369_4456" style="mask-type:alpha" maskUnits="userSpaceOnUse" x="1023" y="524" width="400" height="690">
<path d="M1023.38 1213.48L1422.77 982.918V524.684L1023.38 755.244V1213.48Z" fill="#A870EF"/>
</mask>
<g mask="url(#mask5_369_4456)">
<path opacity="0.04" d="M1023.38 1213.48L1422.77 982.918V524.684L1023.38 755.244V1213.48Z" fill="#F9F8FD"/>
<g opacity="0.24" filter="url(#filter13_f_369_4456)">
<path d="M1223.19 1427.53L2018.8 968.235V55.4043L1223.19 514.695V1427.53Z" fill="#FDB99B"/>
</g>
<g opacity="0.24" filter="url(#filter14_f_369_4456)">
<path d="M427.582 1668.69L1223.19 1209.4V296.573L427.582 755.864V1668.69Z" fill="#A870EF"/>
</g>
</g>
</g>
<g filter="url(#filter15_b_369_4456)">
<mask id="mask6_369_4456" style="mask-type:alpha" maskUnits="userSpaceOnUse" x="624" y="294" width="799" height="462">
<path d="M624 524.718L1023.39 294.087L1422.78 524.718L1023.39 755.278L624 524.718Z" fill="white"/>
</mask>
<g mask="url(#mask6_369_4456)">
<path opacity="0.24" d="M624 524.718L1023.39 294.087L1422.78 524.718L1023.39 755.278L624 524.718Z" fill="#A870EF"/>
</g>
</g>
<defs>
<filter id="filter0_ii_369_4456" x="890" y="1039" width="266.438" height="270.438" filterUnits="userSpaceOnUse" color-interpolation-filters="sRGB">
<feFlood flood-opacity="0" result="BackgroundImageFix"/>
<feBlend mode="normal" in="SourceGraphic" in2="BackgroundImageFix" result="shape"/>
<feColorMatrix in="SourceAlpha" type="matrix" values="0 0 0 0 0 0 0 0 0 0 0 0 0 0 0 0 0 0 127 0" result="hardAlpha"/>
<feOffset dy="4"/>
<feGaussianBlur stdDeviation="39"/>
<feComposite in2="hardAlpha" operator="arithmetic" k2="-1" k3="1"/>
<feColorMatrix type="matrix" values="0 0 0 0 1 0 0 0 0 1 0 0 0 0 1 0 0 0 1 0"/>
<feBlend mode="normal" in2="shape" result="effect1_innerShadow_369_4456"/>
<feColorMatrix in="SourceAlpha" type="matrix" values="0 0 0 0 0 0 0 0 0 0 0 0 0 0 0 0 0 0 127 0" result="hardAlpha"/>
<feOffset dy="4"/>
<feGaussianBlur stdDeviation="51"/>
<feComposite in2="hardAlpha" operator="arithmetic" k2="-1" k3="1"/>
<feColorMatrix type="matrix" values="0 0 0 0 1 0 0 0 0 1 0 0 0 0 1 0 0 0 0.5 0"/>
<feBlend mode="normal" in2="effect1_innerShadow_369_4456" result="effect2_innerShadow_369_4456"/>
</filter>
<filter id="filter1_f_369_4456" x="863.5" y="906.539" width="483.547" height="537.649" filterUnits="userSpaceOnUse" color-interpolation-filters="sRGB">
<feFlood flood-opacity="0" result="BackgroundImageFix"/>
<feBlend mode="normal" in="SourceGraphic" in2="BackgroundImageFix" result="shape"/>
<feGaussianBlur stdDeviation="49.2871" result="effect1_foregroundBlur_369_4456"/>
</filter>
<filter id="filter2_f_369_4456" x="943.5" y="906.539" width="483.547" height="537.649" filterUnits="userSpaceOnUse" color-interpolation-filters="sRGB">
<feFlood flood-opacity="0" result="BackgroundImageFix"/>
<feBlend mode="normal" in="SourceGraphic" in2="BackgroundImageFix" result="shape"/>
<feGaussianBlur stdDeviation="49.2871" result="effect1_foregroundBlur_369_4456"/>
</filter>
<filter id="filter3_f_369_4456" x="689.885" y="-154.687" width="1065.03" height="1642.19" filterUnits="userSpaceOnUse" color-interpolation-filters="sRGB">
<feFlood flood-opacity="0" result="BackgroundImageFix"/>
<feBlend mode="normal" in="SourceGraphic" in2="BackgroundImageFix" result="shape"/>
<feGaussianBlur stdDeviation="67.1295" result="effect1_foregroundBlur_369_4456"/>
</filter>
<filter id="filter4_f_369_4456" x="-106.966" y="-175.82" width="1065.03" height="1642.19" filterUnits="userSpaceOnUse" color-interpolation-filters="sRGB">
<feFlood flood-opacity="0" result="BackgroundImageFix"/>
<feBlend mode="normal" in="SourceGraphic" in2="BackgroundImageFix" result="shape"/>
<feGaussianBlur stdDeviation="67.1295" result="effect1_foregroundBlur_369_4456"/>
</filter>
<filter id="filter5_b_369_4456" x="836.92" y="107.616" width="772.333" height="1061.74" filterUnits="userSpaceOnUse" color-interpolation-filters="sRGB">
<feFlood flood-opacity="0" result="BackgroundImageFix"/>
<feGaussianBlur in="BackgroundImageFix" stdDeviation="93.2355"/>
<feComposite in2="SourceAlpha" operator="in" result="effect1_backgroundBlur_369_4456"/>
<feBlend mode="normal" in="SourceGraphic" in2="effect1_backgroundBlur_369_4456" result="shape"/>
</filter>
<filter id="filter6_f_369_4456" x="1088.94" y="-308.836" width="1064.13" height="1640.64" filterUnits="userSpaceOnUse" color-interpolation-filters="sRGB">
<feFlood flood-opacity="0" result="BackgroundImageFix"/>
<feBlend mode="normal" in="SourceGraphic" in2="BackgroundImageFix" result="shape"/>
<feGaussianBlur stdDeviation="67.1295" result="effect1_foregroundBlur_369_4456"/>
</filter>
<filter id="filter7_f_369_4456" x="293.327" y="-67.6673" width="1064.13" height="1640.64" filterUnits="userSpaceOnUse" color-interpolation-filters="sRGB">
<feFlood flood-opacity="0" result="BackgroundImageFix"/>
<feBlend mode="normal" in="SourceGraphic" in2="BackgroundImageFix" result="shape"/>
<feGaussianBlur stdDeviation="67.1295" result="effect1_foregroundBlur_369_4456"/>
</filter>
<filter id="filter8_f_369_4456" x="662.111" y="203.203" width="721.868" height="721.868" filterUnits="userSpaceOnUse" color-interpolation-filters="sRGB">
<feFlood flood-opacity="0" result="BackgroundImageFix"/>
<feBlend mode="normal" in="SourceGraphic" in2="BackgroundImageFix" result="shape"/>
<feGaussianBlur stdDeviation="84.2179" result="effect1_foregroundBlur_369_4456"/>
</filter>
<filter id="filter9_b_369_4456" x="437.529" y="338.248" width="772.333" height="1061.74" filterUnits="userSpaceOnUse" color-interpolation-filters="sRGB">
<feFlood flood-opacity="0" result="BackgroundImageFix"/>
<feGaussianBlur in="BackgroundImageFix" stdDeviation="93.2355"/>
<feComposite in2="SourceAlpha" operator="in" result="effect1_backgroundBlur_369_4456"/>
<feBlend mode="normal" in="SourceGraphic" in2="effect1_backgroundBlur_369_4456" result="shape"/>
</filter>
<filter id="filter10_f_369_4456" x="689.885" y="249.334" width="1065.03" height="1642.19" filterUnits="userSpaceOnUse" color-interpolation-filters="sRGB">
<feFlood flood-opacity="0" result="BackgroundImageFix"/>
<feBlend mode="normal" in="SourceGraphic" in2="BackgroundImageFix" result="shape"/>
<feGaussianBlur stdDeviation="67.1295" result="effect1_foregroundBlur_369_4456"/>
</filter>
<filter id="filter11_f_369_4456" x="-106.966" y="-175.82" width="1065.03" height="1642.19" filterUnits="userSpaceOnUse" color-interpolation-filters="sRGB">
<feFlood flood-opacity="0" result="BackgroundImageFix"/>
<feBlend mode="normal" in="SourceGraphic" in2="BackgroundImageFix" result="shape"/>
<feGaussianBlur stdDeviation="67.1295" result="effect1_foregroundBlur_369_4456"/>
</filter>
<filter id="filter12_b_369_4456" x="836.912" y="338.213" width="772.333" height="1061.74" filterUnits="userSpaceOnUse" color-interpolation-filters="sRGB">
<feFlood flood-opacity="0" result="BackgroundImageFix"/>
<feGaussianBlur in="BackgroundImageFix" stdDeviation="93.2355"/>
<feComposite in2="SourceAlpha" operator="in" result="effect1_backgroundBlur_369_4456"/>
<feBlend mode="normal" in="SourceGraphic" in2="effect1_backgroundBlur_369_4456" result="shape"/>
</filter>
<filter id="filter13_f_369_4456" x="1088.93" y="-78.8548" width="1064.13" height="1640.64" filterUnits="userSpaceOnUse" color-interpolation-filters="sRGB">
<feFlood flood-opacity="0" result="BackgroundImageFix"/>
<feBlend mode="normal" in="SourceGraphic" in2="BackgroundImageFix" result="shape"/>
<feGaussianBlur stdDeviation="67.1295" result="effect1_foregroundBlur_369_4456"/>
</filter>
<filter id="filter14_f_369_4456" x="293.323" y="162.314" width="1064.13" height="1640.64" filterUnits="userSpaceOnUse" color-interpolation-filters="sRGB">
<feFlood flood-opacity="0" result="BackgroundImageFix"/>
<feBlend mode="normal" in="SourceGraphic" in2="BackgroundImageFix" result="shape"/>
<feGaussianBlur stdDeviation="67.1295" result="effect1_foregroundBlur_369_4456"/>
</filter>
<filter id="filter15_b_369_4456" x="437.529" y="107.616" width="1171.72" height="834.133" filterUnits="userSpaceOnUse" color-interpolation-filters="sRGB">
<feFlood flood-opacity="0" result="BackgroundImageFix"/>
<feGaussianBlur in="BackgroundImageFix" stdDeviation="93.2355"/>
<feComposite in2="SourceAlpha" operator="in" result="effect1_backgroundBlur_369_4456"/>
<feBlend mode="normal" in="SourceGraphic" in2="effect1_backgroundBlur_369_4456" result="shape"/>
</filter>
</defs>
</svg>
