<svg width="1096" height="298" viewBox="0 0 1096 298" fill="none" xmlns="http://www.w3.org/2000/svg">
<g clip-path="url(#clip0_201_2)">
<path d="M305.816 35.9605H356.223C369.035 35.9605 378.43 39.3853 384.409 45.3787C390.388 50.516 392.95 57.3656 392.95 64.2152C392.95 66.7838 392.95 70.2086 392.096 72.7772C390.387 77.0582 387.825 81.3393 384.409 84.7641C382.7 86.4765 380.992 87.3327 379.284 88.1889C385.263 89.9013 390.388 93.3261 394.658 97.6071C398.075 101.888 399.783 107.025 399.783 114.731C399.783 119.012 398.929 124.149 397.22 127.574C395.512 130.999 392.096 134.424 388.679 136.992C384.409 139.561 380.138 141.273 375.867 142.986C370.743 144.698 364.764 144.698 358.785 144.698H306.67V35.9605H305.816ZM351.952 80.4831C356.223 80.4831 360.493 79.6269 364.764 77.9144C368.18 76.202 369.889 72.7772 369.889 69.3524C369.889 65.9276 368.18 62.5028 365.618 60.7904C362.202 58.2218 357.931 57.3656 353.66 58.2218H329.745V81.3393H351.952V80.4831ZM357.931 124.149C362.202 124.149 366.472 123.293 370.743 121.581C374.159 119.868 375.867 116.444 375.013 112.163C375.013 108.738 373.305 105.313 370.743 103.601C368.18 101.888 363.056 100.176 357.077 100.176H328.891V124.149H357.931Z" fill="#F3BA2F"/>
<path d="M429.691 35.9605H453.606V145.582H429.691V35.9605Z" fill="#F3BA2F"/>
<path d="M490.333 35.9605H512.554L563.801 103.614V35.9605H587.717V145.582H567.218L513.408 76.2158V145.582H490.333V35.9605Z" fill="#F3BA2F"/>
<path d="M660.33 35.1043H682.538L729.528 145.568H704.758L694.509 120.738H648.373L638.123 145.568H613.354L660.344 35.1043H660.33ZM685.954 100.19L671.434 64.229L656.914 100.19H685.954Z" fill="#F3BA2F"/>
<path d="M755.151 35.9605H777.372L828.619 103.614V35.9605H852.535V145.582H832.036L779.081 76.2158V145.582H755.151V35.9605Z" fill="#F3BA2F"/>
<path d="M939.669 147.295C931.982 147.295 924.295 145.582 917.462 143.013C903.796 137.02 893.546 126.746 887.567 113.046C885.005 106.197 883.297 98.4909 883.297 90.7851C883.297 76.2297 889.276 61.6742 899.525 50.5436C904.65 45.4064 910.629 41.1253 917.462 38.5567C925.149 35.1319 932.836 34.2757 940.523 34.2757C944.793 34.2757 949.918 34.2757 954.189 35.1319C958.459 35.9881 961.876 36.8443 965.292 38.5567C968.709 40.2691 972.125 41.9816 974.688 43.694C977.25 45.4064 980.666 47.975 983.229 50.5436L968.709 68.5238C964.438 65.099 960.168 61.6742 955.897 59.1056C951.626 56.537 946.502 55.6808 941.377 55.6808C937.106 55.6808 932.836 56.537 928.565 58.2494C924.295 59.9618 920.878 62.5304 918.316 65.9552C915.753 69.38 913.191 72.8049 911.483 77.0859C909.775 81.3669 908.92 85.6479 908.92 89.9289C908.92 94.2099 909.775 99.3471 911.483 103.628C913.191 107.909 914.899 111.334 918.316 114.759C924.295 121.608 932.836 125.033 941.377 125.033C946.502 125.033 952.48 124.177 957.605 121.608C961.876 119.04 967 115.615 970.417 112.19L985.791 127.602C983.229 130.17 979.812 133.595 977.25 136.164C973.833 138.732 970.417 140.445 967 142.157C963.584 143.87 959.313 145.582 955.043 146.438C949.064 147.294 943.939 147.295 939.669 147.295Z" fill="#F3BA2F"/>
<path d="M1013.14 35.9605H1095.15V57.3794H1036.2V79.6407H1088.31V101.046H1036.2V124.163H1096V145.582H1013.14V35.9605Z" fill="#F3BA2F"/>
<path d="M336.578 253.477C330.599 253.477 324.62 252.621 319.496 250.053C314.371 248.34 309.246 244.915 304.121 240.634L312.663 231.216C316.079 234.641 319.496 236.353 323.766 238.922C328.037 240.634 332.307 241.491 336.578 241.491C339.994 241.491 343.411 240.634 346.827 238.922C349.39 237.21 350.244 234.641 350.244 232.072C350.244 231.216 350.244 229.504 349.39 228.648C348.536 227.791 347.682 226.079 346.827 225.223L341.703 222.654C339.14 221.798 335.724 220.942 333.162 220.086C329.745 219.229 325.474 218.373 322.058 216.661C319.496 215.805 316.079 214.092 314.371 212.38C312.663 210.667 310.954 208.955 309.246 206.386C307.538 202.961 307.538 199.537 307.538 196.968C307.538 193.543 308.392 190.975 309.246 187.55C310.1 184.981 312.663 182.413 314.371 180.7C316.933 178.988 319.496 177.275 322.912 176.419C326.329 175.563 329.745 174.707 333.162 174.707C338.286 174.707 343.411 175.563 348.536 177.275C352.806 178.988 357.077 181.556 361.347 184.125L354.514 194.399C351.098 191.831 347.682 190.118 344.265 188.406C340.849 186.694 337.432 186.694 334.016 186.694C330.599 186.694 327.183 187.55 324.62 189.262C322.912 190.975 321.204 193.543 321.204 196.112C321.204 197.824 321.204 198.68 322.058 200.393C322.912 201.249 323.766 202.961 324.62 203.818C326.329 204.674 328.037 205.53 330.599 206.386C333.162 207.242 335.724 208.099 339.994 208.955C343.411 209.811 346.827 210.667 351.098 212.38C353.66 213.236 356.223 214.948 358.785 216.661C360.493 218.373 362.202 220.942 363.056 222.654C363.91 225.223 364.764 227.791 364.764 231.216C364.764 234.641 363.91 238.066 363.056 240.634C361.347 243.203 359.639 245.772 357.077 248.34C354.515 250.053 351.952 251.765 348.536 252.621C344.265 252.621 339.994 253.477 336.578 253.477Z" fill="#F3BA2F"/>
<path d="M379.284 175.549H393.804L416.879 211.51L440.794 175.549H455.314V252.621H441.648V196.954L417.733 232.929H416.879L392.95 196.954V252.621H379.284V175.549Z" fill="#F3BA2F"/>
<path d="M501.45 174.693H514.262L547.573 251.765H533.053L525.366 232.929H489.493L481.806 251.765H468.14L501.45 174.693ZM521.095 221.798L507.429 190.975L494.618 221.798H521.095Z" fill="#F3BA2F"/>
<path d="M561.239 175.549H595.404C599.674 175.549 603.945 176.405 608.215 177.262C611.632 178.118 615.048 180.686 617.611 183.255C619.319 184.967 621.027 187.536 622.735 190.961C623.59 193.529 624.444 196.954 624.444 200.379C624.444 202.948 623.59 206.373 622.735 208.941C621.881 211.51 620.173 213.222 619.319 215.791C617.611 217.503 615.902 219.216 613.34 220.928C610.778 222.64 608.215 223.497 605.653 224.353L626.152 253.464H609.924L591.133 226.921H574.051V253.464H560.385L561.239 175.535V175.549ZM594.549 213.222C598.82 213.222 603.091 212.366 605.653 209.797C608.215 207.229 609.924 203.804 609.924 200.379C609.924 196.954 608.215 193.529 605.653 190.961C602.237 188.392 597.966 187.536 593.695 187.536H574.051V213.222H594.549Z" fill="#F3BA2F"/>
<path d="M659.476 187.536H634.707V175.549H697.071V187.536H672.288V252.621H658.622L659.476 187.536Z" fill="#F3BA2F"/>
<path d="M779.935 253.477C774.81 253.477 769.685 252.621 764.56 250.053C755.165 245.772 747.478 238.922 744.062 229.504C742.353 224.367 740.645 219.229 741.499 214.092C741.499 208.955 742.353 203.818 744.062 198.68C747.478 189.262 755.165 181.556 764.56 177.275C769.685 175.563 774.81 173.851 780.789 173.851C784.205 173.851 787.622 173.851 790.184 174.707C792.746 175.563 795.309 176.419 797.871 177.275C800.433 178.132 802.142 179.844 804.704 180.7C806.412 182.413 808.975 184.125 810.683 185.837L802.142 196.112C799.579 193.543 796.163 190.975 792.746 189.262C789.33 187.55 785.059 186.694 780.789 186.694C777.372 186.694 773.956 187.55 770.539 188.406C767.123 190.118 764.561 191.831 761.998 194.399C759.436 196.968 757.728 199.537 756.873 202.961C756.019 206.386 755.165 209.811 755.165 213.236C755.165 216.661 756.019 220.086 756.873 223.51C757.728 226.935 759.436 229.504 761.998 232.072C764.561 234.641 767.123 236.353 770.539 238.066C773.956 239.778 777.372 240.634 780.789 239.778C785.059 239.778 789.33 238.922 792.746 237.21C796.163 235.497 799.579 232.929 802.996 229.504L811.537 238.066C809.829 239.778 807.266 242.347 805.558 244.059C802.996 245.772 801.288 247.484 798.725 248.34C796.163 249.196 793.601 250.909 790.184 250.909C786.768 253.477 783.351 253.477 779.935 253.477Z" fill="#F3BA2F"/>
<path d="M825.203 175.549H838.015V207.229H874.756V175.549H888.422V252.621H874.756V220.072H838.015V252.621H825.203V175.549Z" fill="#F3BA2F"/>
<path d="M935.398 174.693H948.21L981.52 251.765H967L959.313 232.929H923.44L915.753 251.765H902.087L935.398 174.693ZM954.189 221.798L941.377 190.975L928.565 221.798H954.189Z" fill="#F3BA2F"/>
<path d="M995.2 175.549H1008.87V252.621H995.2V175.549Z" fill="#F3BA2F"/>
<path d="M1029.36 175.549H1041.32L1082.33 228.648V175.549H1096V252.621H1084.9L1043.03 197.81V252.621H1029.36V175.549Z" fill="#F3BA2F"/>
<path d="M155.477 247.484V280.876L126.437 298L98.2512 280.876V247.484L126.437 264.608L155.477 247.484ZM0 131.869L28.1859 148.993V206.372L76.8845 235.483V268.875L0 223.497V131.869ZM252.861 131.869V223.497L175.122 268.875V235.483L223.821 206.372V148.993L252.861 131.869ZM175.122 86.4903L204.162 103.614V137.006L155.463 166.117V224.353L127.278 241.477L99.0916 224.353V166.117L48.6848 137.006V103.614L77.7248 86.4903L126.423 115.601L175.122 86.4903ZM48.6986 160.994L76.8845 178.118V211.51L48.6986 194.386V160.994ZM204.176 160.994V194.386L175.99 211.51V178.118L204.176 160.994ZM28.1859 57.3794L57.226 74.5035L28.1859 91.6275V125.019L0 107.895V74.5035L28.1859 57.3794ZM224.661 57.3794L253.701 74.5035V107.895L224.661 125.019V91.6275L196.475 74.5035L224.661 57.3794ZM126.423 57.3794L155.463 74.5035L126.423 91.6275L98.2375 74.5035L126.423 57.3794ZM126.423 0L204.162 45.3787L175.976 62.5028L127.278 33.3919L77.7248 62.5028L49.5389 45.3787L126.423 0Z" fill="#F3BA2F"/>
</g>
<defs>
<clipPath id="clip0_201_2">
<rect width="1096" height="298" fill="white"/>
</clipPath>
</defs>
</svg>
