<svg width="824" height="459" viewBox="0 0 824 459" fill="none" xmlns="http://www.w3.org/2000/svg">
<path d="M635.078 260.218C635.748 261.307 636.418 262.48 637.34 263.82C669.501 243.049 700.656 221.525 728.462 195.394C756.519 169.179 774.777 136.851 788.261 101.508C789.434 98.4926 789.434 95.0588 789.602 91.7924C789.853 86.7673 791.528 82.6633 796.553 80.6532C797.809 80.1507 799.149 79.8157 800.405 79.8995C801.243 79.8995 802.248 80.5695 802.918 81.2396C809.032 87.2697 815.9 92.8811 820.841 99.7487C823.437 103.35 824.275 109.632 823.354 114.154C821.092 125.126 818.161 136.097 813.89 146.483C808.027 160.553 800.657 174.037 793.957 187.772H794.124C794.124 188.526 794.124 189.364 794.124 190.201H793.957C793.119 191.541 792.282 192.965 791.444 194.305L792.03 193.97L791.695 194.222C787.089 199.498 782.399 204.69 777.792 209.967L778.044 209.799C777.29 210.553 776.536 211.307 775.782 212.061L776.117 211.809C775.364 212.563 774.61 213.317 773.856 214.071L774.107 213.82C773.354 214.573 772.6 215.327 771.846 216.081L772.097 215.83C771.344 216.583 770.59 217.337 769.836 218.091L770.087 217.84C769.333 218.593 768.58 219.347 767.826 220.101L768.077 219.85C767.323 220.604 766.57 221.357 765.816 222.111L766.067 221.86C765.313 222.613 764.559 223.367 763.806 224.121L764.057 223.87C763.303 224.623 762.549 225.377 761.796 226.131L762.047 225.796C761.293 226.55 760.539 227.304 759.702 228.141L760.037 227.806C759.283 228.56 758.529 229.314 757.692 230.151L758.027 229.816C757.273 230.57 756.519 231.324 755.682 232.161L756.017 231.826C755.263 232.58 754.425 233.418 753.672 234.171L754.007 233.836C753.253 234.59 752.416 235.428 751.662 236.181L751.997 235.846C751.243 236.6 750.405 237.438 749.652 238.191L749.987 237.856C749.233 238.61 748.395 239.448 747.642 240.201L747.977 239.866L745.632 242.295L746.05 241.96C741.193 246.064 736.419 250.252 731.561 254.356L731.896 253.937C720.506 261.977 709.283 270.185 697.809 278.057C676.368 292.63 654.676 306.952 633.152 321.525C627.792 325.126 622.851 329.23 617.658 333.083C615.564 333.083 613.554 333.083 611.544 333.083C610.623 335.344 609.785 337.605 608.78 339.783C607.44 340.537 606.1 341.374 604.76 342.128C603.085 342.463 601.41 342.798 599.651 343.133C598.395 343.803 597.139 344.473 595.882 345.143C594.04 345.143 592.281 345.143 590.522 345.143C590.187 346.734 589.768 348.326 589.433 350.001C588.428 350.587 587.34 351.173 586.335 351.76C586 351.508 585.665 351.257 585.246 350.922L586.083 352.011C587.172 351.173 588.261 350.419 589.35 349.498C589.769 347.991 590.187 346.567 590.606 345.059C592.281 345.059 594.04 344.976 595.715 344.892L599.484 342.798C601.243 342.547 603.001 342.296 604.844 342.044C606.184 341.29 607.524 340.453 608.78 339.699C609.702 337.438 610.623 335.177 611.544 332.915C613.554 332.915 615.564 332.915 617.49 332.915C621.259 331.408 625.028 329.9 628.713 328.476H628.462C621.008 333.334 613.973 338.945 606.1 342.965C579.718 356.617 553.42 370.604 526.368 382.832C478.462 404.44 429.802 424.54 378.88 438.108C364.14 442.044 348.897 444.055 333.822 446.986V447.237C333.068 447.237 332.23 447.237 331.476 447.237V446.986C324.86 448.912 318.327 451.592 311.543 452.765C270.672 459.465 229.717 461.14 188.511 455.947C171.593 453.854 154.424 454.356 137.422 452.932C99.9014 449.75 64.9767 438.694 35.7472 414.406C0.403707 385.177 -9.14403 341.123 8.94646 298.995C16.6517 280.989 26.2831 264.071 39.516 249.749C63.3854 223.953 87.0872 197.906 112.632 173.87C149.734 139.029 193.118 112.982 238.26 89.7825C300.404 57.8728 364.894 32.077 432.482 14.3216C459.031 7.37013 485.916 1.84257 513.554 1.59131C516.737 1.59131 520.003 2.00988 523.102 2.17739V18.3418C527.541 18.6768 531.644 19.0117 535.413 19.2629C538.847 14.3215 538.596 9.04514 542.448 4.60627C545.212 1.42369 547.39 0 550.656 0C586.167 0.167505 620.757 6.61629 652.499 22.3617C689.35 40.6197 714.894 69.263 722.516 111.055C725.866 129.481 721.092 147.069 713.806 163.819C702.834 189.029 686.335 210.386 667.407 230.068V230.402C667.574 229.23 667.658 228.057 667.742 226.801L667.491 226.382L667.742 227.052L663.136 230.319L663.471 230.068C662.717 230.821 661.879 231.659 661.126 232.413L661.46 232.077C660.707 232.831 659.953 233.585 659.115 234.423L659.45 234.087C658.697 234.841 657.859 235.679 657.105 236.433L657.44 236.098C656.687 236.851 655.849 237.689 655.095 238.443L655.43 238.108C654.676 238.861 653.839 239.699 653.085 240.453L653.42 240.118L651.075 242.463L651.41 242.128C650.656 242.881 649.819 243.719 649.065 244.473L649.4 244.138C648.646 244.892 647.809 245.729 647.055 246.483L647.39 246.148C645.966 247.572 644.543 248.995 643.035 250.503L643.454 250.168C634.073 258.292 624.693 266.5 615.313 274.624C614.141 275.042 612.884 275.377 611.711 275.796C612.382 276.634 613.052 277.471 613.722 278.309C614.224 276.969 614.727 275.712 615.145 274.372C621.846 269.766 628.63 265.076 635.33 260.469L634.995 260.218H635.078ZM197.808 127.638C197.808 127.638 197.222 127.638 196.97 127.638C197.305 127.638 197.724 127.471 197.975 127.471L197.557 127.303C197.557 127.303 197.724 127.555 197.724 127.722L197.808 127.638ZM188.009 185.93C187.004 186.851 185.999 187.689 184.994 188.61C183.654 188.861 182.23 189.113 180.89 189.448C180.555 190.788 180.136 192.044 179.801 193.384C177.707 194.389 175.697 195.394 173.603 196.399C171.091 197.153 168.578 197.907 166.066 198.66C165.647 199.833 165.144 201.005 164.726 202.178C164.391 203.35 164.139 204.523 163.804 205.696C163.553 205.696 163.302 205.863 163.051 205.863C163.218 205.528 163.469 205.193 163.637 204.858C163.637 205.109 163.721 205.36 163.804 205.612C163.972 204.355 164.223 203.183 164.391 201.927C164.977 200.838 165.479 199.749 166.066 198.577C168.495 197.739 170.923 196.985 173.352 196.148C175.446 195.143 177.623 194.138 179.634 193.049C179.969 191.709 180.304 190.369 180.639 189.029C182.062 188.861 183.402 188.694 184.826 188.443C185.915 187.438 187.004 186.516 188.093 185.595C187.925 185.595 187.758 185.427 187.59 185.344C187.758 185.511 187.925 185.679 188.009 185.93ZM623.437 320.855C624.023 320.101 624.609 319.347 625.196 318.593C628.546 317.253 631.98 316.165 635.078 314.49C641.444 311.14 647.725 307.538 654.007 303.937C654.258 302.262 654.509 300.671 654.76 298.995C657.943 300.754 660.288 300.168 661.293 296.483C667.491 294.473 673.94 292.882 676.955 286.098C679.132 284.925 681.31 283.669 683.487 282.496L690.271 279.314C700.824 271.106 711.377 262.898 721.93 254.69C722.348 253.685 722.851 252.764 723.27 251.759C726.368 250.336 729.467 248.828 732.482 247.237C733.069 246.315 733.571 245.31 734.157 244.389C734.576 243.468 734.995 242.547 735.33 241.542C736.084 240.872 736.754 240.201 737.508 239.531C738.178 238.61 738.847 237.773 739.434 236.851C739.434 237.103 739.434 237.354 739.434 237.605C739.434 237.354 739.35 237.103 739.266 236.851C738.764 237.856 738.178 238.861 737.675 239.866C736.921 240.536 736.251 241.206 735.497 241.876C735.079 242.798 734.66 243.635 734.241 244.557C733.655 245.562 733.153 246.567 732.566 247.572C729.467 248.995 726.452 250.503 723.353 252.011C722.935 252.932 722.432 253.937 722.013 254.858C711.544 261.81 701.075 268.761 690.774 275.88C690.104 276.299 690.439 278.225 690.187 279.314C686.419 277.22 684.492 278.979 683.487 282.58C681.31 283.753 679.132 285.009 677.038 286.181C671.846 289.615 666.653 293.133 661.377 296.567C659.115 297.32 656.854 298.158 654.593 299.079C654.341 300.754 654.09 302.429 653.839 304.104C647.222 303.016 631.98 310.805 625.196 318.677C624.609 319.515 623.939 320.269 623.353 321.022L623.269 320.771L623.437 320.855ZM634.409 294.054C634.409 294.054 634.995 293.97 635.33 293.887C634.995 294.054 634.66 294.305 634.325 294.473C634.492 294.473 634.66 294.557 634.827 294.64C634.66 294.473 634.576 294.222 634.409 294.054ZM675.447 215.16C675.447 215.16 675.112 215.16 675.028 215.327C675.196 215.411 675.447 215.578 675.615 215.662C675.447 215.662 675.28 215.662 675.112 215.662C675.196 215.495 675.363 215.243 675.447 215.076V215.16ZM717.072 219.18C716.905 220.52 716.737 221.86 716.57 223.116C715.648 223.535 714.727 223.87 713.806 224.289C706.017 229.23 697.725 233.585 690.606 239.28C657.357 265.662 619.584 284.758 583.403 306.45C577.373 310.051 572.097 315.076 566.485 319.431C566.234 319.431 565.983 319.598 565.732 319.598C565.564 319.598 565.397 319.264 565.229 319.18C565.648 319.347 565.983 319.599 566.401 319.766C569.249 318.091 572.013 316.332 574.944 314.825C621.343 291.96 666.067 266.5 705.598 232.664C708.529 230.151 710.958 226.969 713.554 224.121C714.476 223.702 715.397 223.367 716.318 222.865C716.486 221.608 716.737 220.436 716.988 219.18L717.575 219.766L717.072 219.18ZM674.358 273.283V272.614L674.61 273.032L673.94 272.781L674.358 273.283ZM138.93 228.979C138.176 229.481 137.506 229.984 136.752 230.486C136.25 231.24 135.747 231.994 135.161 232.747C126.618 235.679 122.766 243.049 118.746 250.252C116.819 252.932 114.893 255.528 112.967 258.208L109.114 259.799C108.863 261.14 108.612 262.396 108.36 263.736L108.612 264.238L108.528 263.401C108.779 262.228 109.03 260.972 109.198 259.799C110.37 259.213 111.627 258.543 112.799 257.957C114.726 255.277 116.652 252.68 118.578 250C124.022 244.138 129.466 238.359 134.994 232.496C135.496 231.742 136.082 230.989 136.585 230.235C137.422 229.732 138.26 229.23 139.014 228.644C139.014 228.56 139.181 228.476 139.265 228.392C139.181 228.56 139.014 228.727 138.93 228.979ZM732.818 228.309C731.561 228.895 730.305 229.481 729.049 230.068L728.546 233.585C726.117 234.087 723.772 234.59 721.427 235.26C720.925 236.098 720.422 237.019 719.92 237.94C719.417 239.029 718.831 240.118 718.328 241.206C715.481 242.882 712.717 244.473 709.869 246.148C709.534 247.32 709.115 248.493 708.78 249.666C706.435 250.503 704.09 251.34 701.745 252.178C701.326 253.183 700.992 254.272 700.573 255.277C698.312 256.198 696.134 257.203 693.872 258.208C693.454 259.381 692.951 260.553 692.533 261.726C688.429 259.716 687.256 261.893 686.921 265.411C684.744 266.584 682.566 267.672 680.305 268.761L679.718 268.593H680.137C682.399 267.421 684.576 266.332 686.837 265.243C688.68 263.987 690.522 262.647 692.365 261.307C692.784 260.134 693.202 258.962 693.621 257.79C695.883 256.784 698.06 255.863 700.238 254.858C700.656 253.853 701.075 252.848 701.494 251.843C703.839 251.005 706.268 250.168 708.529 249.247C708.864 248.074 709.199 246.902 709.534 245.729C712.382 244.054 715.229 242.379 717.993 240.704C718.496 239.615 719.082 238.61 719.584 237.521C720.171 236.6 720.757 235.762 721.26 234.841C723.688 234.339 726.117 233.92 728.546 233.418C728.546 232.329 728.63 231.156 728.797 230.068C730.137 229.314 731.477 228.56 732.734 227.806C732.566 227.806 732.399 227.806 732.231 227.722C732.399 227.89 732.566 228.057 732.734 228.225L732.818 228.309ZM616.653 267.253C616.737 266.165 616.904 264.992 616.988 263.903C617.742 263.317 618.496 262.731 619.249 262.228C623.102 259.716 626.871 257.203 630.723 254.774C630.556 254.942 630.305 255.109 630.137 255.277L630.305 254.439C630.305 254.439 630.556 254.858 630.64 255.026C627.122 256.617 623.521 258.208 620.003 259.799L619.501 259.967H620.254C620.003 260.804 619.836 261.642 619.584 262.48C618.831 263.066 618.077 263.568 617.323 264.155C617.156 265.243 616.988 266.248 616.737 267.253C616.067 268.175 615.313 269.096 614.643 270.017C609.45 267.756 607.105 270.268 606.016 274.959C603.253 276.885 600.572 278.811 597.809 280.821C595.045 282.748 592.281 284.674 589.517 286.6C585.162 286.768 582.315 288.526 581.98 293.217C579.718 293.803 577.373 294.389 575.112 294.976C575.363 295.562 575.698 296.232 575.949 296.818C577.876 295.562 579.886 294.222 581.812 292.965C584.325 290.788 586.837 288.61 589.35 286.433C592.114 284.506 594.877 282.58 597.641 280.654C600.405 278.727 603.085 276.717 605.849 274.791C608.78 273.2 611.795 271.608 614.727 269.933C615.48 269.012 616.15 268.175 616.904 267.253H616.653ZM595.38 264.155L596.636 260.804C596.636 260.804 597.055 260.637 597.306 260.637C597.139 260.972 596.971 261.223 596.804 261.558C596.804 261.307 596.72 261.139 596.636 261.056C596.301 262.145 596.05 263.317 595.715 264.406C595.212 265.578 594.71 266.751 594.124 267.923C591.779 268.677 589.517 269.431 587.172 270.269C586.753 271.274 586.335 272.362 585.916 273.367C578.964 273.535 574.107 276.55 571.929 283.334C569.752 284.339 567.574 285.344 565.396 286.433C564.81 287.438 564.224 288.526 563.638 289.531C562.298 289.783 560.958 290.118 559.618 290.369C558.864 291.542 558.194 292.714 557.44 293.887C555.681 294.222 553.923 294.557 552.164 294.892C552.331 294.892 552.499 294.975 552.666 295.059C552.499 294.892 552.331 294.724 552.164 294.557C553.923 294.389 555.681 294.138 557.524 293.97C558.11 292.714 558.78 291.458 559.366 290.202C560.706 289.867 562.047 289.532 563.387 289.197C563.973 288.192 564.559 287.186 565.145 286.265C567.407 285.26 569.584 284.339 571.846 283.334C576.452 279.984 581.142 276.55 585.665 273.116C586.083 272.111 586.502 271.106 586.921 270.101C589.266 269.347 591.695 268.593 593.956 267.672C594.459 266.5 594.877 265.411 595.38 264.238V264.155ZM602.918 259.297C603.671 257.957 604.509 256.533 605.263 255.193L605.765 255.528H605.179C604.593 256.784 604.006 257.957 603.42 259.13C603.253 258.962 603.085 258.878 602.918 258.711C602.918 258.878 602.918 259.046 602.918 259.213V259.297ZM594.04 246.65C594.291 245.394 594.459 244.138 594.71 242.882C594.626 244.138 594.542 245.394 594.375 246.65C593.537 247.655 592.7 248.577 591.862 249.582C589.685 250.503 587.507 251.341 585.33 252.262C584.743 253.099 584.157 253.853 583.571 254.69C580.64 255.779 577.373 256.449 574.861 258.124C563.889 265.746 553.671 274.624 542.113 281.24C511.46 298.661 480.221 315.076 449.148 331.826C440.941 336.265 432.566 340.285 424.19 344.473C439.349 340.118 454.592 335.763 468.328 328.476C495.212 314.239 521.678 299.079 547.474 282.999C560.372 274.959 571.427 264.071 583.32 254.523C583.906 253.686 584.492 252.848 585.078 252.094C587.34 251.173 589.517 250.252 591.695 249.247C592.532 248.409 593.286 247.572 594.124 246.734L594.04 246.65ZM113.637 241.96C114.726 241.206 115.731 240.453 116.819 239.699C117.238 238.694 117.657 237.773 118.076 236.768C118.159 236.181 118.327 235.595 118.411 235.009C119.164 235.26 119.918 235.511 120.672 235.763L121.091 235.93V235.511C120.086 235.93 119.081 236.349 118.076 236.935C117.741 237.94 117.406 238.861 116.987 239.866C115.898 240.704 114.726 241.542 113.637 242.379C113.804 242.379 114.056 242.463 114.223 242.547C114.056 242.379 113.804 242.211 113.637 241.96ZM444.961 403.435C444.961 403.435 445.463 403.016 445.715 402.848C445.547 403.016 445.38 403.1 445.128 403.183L444.458 403.435H444.961ZM282.565 82.5796C281.476 83.5009 280.471 84.5059 279.383 85.4272C257.356 96.3987 235.329 107.37 213.386 118.426C212.213 119.012 211.711 121.106 210.957 122.529C208.528 122.697 206.099 122.781 203.671 122.948C203.838 123.116 203.922 123.367 204.089 123.535C203.754 123.451 203.335 123.367 203 123.2C203.252 123.116 203.419 123.032 203.754 122.948L211.041 122.613C213.469 120.938 215.731 119.012 218.327 117.756C235.999 108.71 253.754 99.7489 271.342 90.7036C274.19 89.2798 276.702 87.1024 279.383 85.3436C280.471 84.4223 281.476 83.5009 282.649 82.5796C284.575 82.3284 286.501 82.161 288.428 81.9097C291.359 80.4022 294.374 78.8946 297.389 77.387C298.394 76.5495 299.399 75.6283 300.404 74.7907C301.744 74.1207 303.168 73.3669 304.508 72.6969C304.759 72.6969 305.095 72.4457 305.346 72.4457C305.513 72.4457 305.681 72.7807 305.848 72.9482L304.592 72.3618C303.168 73.1156 301.744 73.9531 300.321 74.7069C299.399 75.6282 298.478 76.6332 297.557 77.5544C294.542 79.062 291.61 80.5695 288.595 81.9933C286.669 82.1608 284.743 82.4121 282.733 82.5796H282.565ZM528.127 334.255C528.127 334.255 528.713 333.753 528.964 333.585C529.048 333.836 529.132 334.088 529.299 334.255C528.881 334.423 528.462 334.507 528.043 334.674C528.211 334.674 528.294 334.758 528.462 334.841C528.378 334.674 528.294 334.506 528.211 334.339L528.127 334.255ZM540.103 32.3283C538.68 32.4958 537.172 32.5794 535.748 32.7469L535.246 32.9984H536C537.34 32.7472 538.596 32.5796 540.02 32.4121L540.187 32.2444L540.103 32.3283ZM533.487 42.546L534.827 44.9749C534.324 44.2212 533.822 43.5511 533.32 42.7973C532.566 42.2948 531.896 41.7085 531.142 41.206C530.639 42.9648 530.137 44.6398 529.634 46.3986C525.614 49.2462 521.678 52.01 517.49 55.0251C517.909 55.7788 518.244 56.7839 518.914 57.4539C522.85 61.5578 525.363 66.4992 522.599 71.6081C519.752 76.8007 514.475 73.7018 509.953 73.6181C496.72 73.2831 482.984 71.7757 470.254 74.2882C444.542 79.3134 418.746 84.2546 393.621 92.7136C343.369 109.632 294.542 129.313 247.724 154.188C198.059 180.486 153.419 212.898 119.332 258.376C104.591 278.057 92.1124 298.996 85.6635 322.949C81.3083 339.113 80.1359 355.444 86.9198 371.19C89.5999 377.471 93.4525 384.423 98.8126 388.024C117.741 400.838 139.181 409.046 162.129 406.366C190.019 403.1 217.825 398.409 245.044 391.625C316.317 373.954 385.162 348.912 451.996 318.51C506.184 293.887 556.938 263.736 601.075 223.367C628.127 198.577 652.834 171.692 669.249 138.526C675.196 126.466 679.132 112.982 681.812 99.6652C684.911 84.7573 677.541 73.6182 663.889 67.2531C644.626 58.2078 625.112 50.0839 603.085 50.2514C594.961 50.2514 586.921 47.9063 578.63 46.5662C579.216 43.8024 579.467 42.2109 579.802 40.6197C569.668 38.6933 562.968 26.3818 549.065 33.082C548.395 24.7905 547.892 18.0067 547.39 11.2228C546.552 11.3903 545.631 11.5577 544.794 11.6414C541.443 21.7755 542.197 30.9045 551.913 36.851C551.661 42.9649 538.763 36.4321 544.961 47.4874C539.35 44.2211 534.325 52.6801 529.634 45.9799C530.974 44.8074 532.398 43.6347 533.738 42.4622L533.487 42.546ZM93.2012 211.391C93.285 212.228 93.3687 213.149 93.4525 213.987C93.3687 213.149 93.285 212.312 93.2012 211.475C94.1225 210.469 95.0438 209.548 96.0488 208.543H100.739C100.739 207.957 100.739 207.454 100.739 206.868C99.1476 207.454 97.6401 207.957 96.0488 208.543C95.1275 209.464 94.2062 210.386 93.2849 211.307L93.2012 211.391ZM431.895 387.522C434.157 384.507 438.009 381.491 431.225 377.723C428.378 383.25 425.614 388.694 422.264 395.311C429.802 395.646 430.304 390.788 432.147 387.354L431.895 387.522ZM384.575 41.9597C384.659 42.4622 384.743 42.9649 384.827 43.3836C385.832 43.2161 386.837 43.0486 387.758 42.8811C387.758 42.5461 387.758 42.2111 387.674 41.8761H384.492L384.575 41.9597ZM441.276 399.582C441.108 399.08 440.941 398.577 440.69 398.158C440.69 398.158 439.936 398.158 439.936 398.326C439.768 398.828 439.768 399.331 439.768 399.833C440.271 399.833 440.773 399.666 441.276 399.582ZM548.395 8.71005C548.395 8.71005 549.149 8.54265 549.232 8.29139C549.316 8.12389 549.065 7.705 548.981 7.36999C548.562 7.62124 548.144 7.78889 547.725 8.04015L548.395 8.62647V8.71005ZM439.684 379.9C439.684 379.9 439.098 379.9 438.931 379.984C438.763 380.152 438.763 380.487 438.763 380.822C439.182 380.822 439.601 380.738 440.019 380.654C439.936 380.403 439.852 380.151 439.768 379.9H439.684ZM492.616 68.1742L492.03 68.5093L492.7 68.7606V68.1742H492.616ZM488.596 388.275L489.35 387.94L488.596 387.606V388.359V388.275ZM556.184 18.0903C556.184 18.0903 556.435 17.5879 556.435 17.4204C556.435 17.3366 556.1 17.2529 555.849 17.1691C555.849 17.4204 555.598 17.6715 555.598 17.839C555.598 17.9228 555.932 18.0065 556.184 18.0903Z" fill="#EBEBEB"/>
<path d="M724.108 264.49C726.704 261.056 729.384 257.623 731.981 254.105L731.645 254.524C736.503 250.42 741.277 246.232 746.135 242.128L745.716 242.463C746.47 241.626 747.307 240.872 748.061 240.034L747.726 240.37C748.48 239.616 749.317 238.778 750.071 238.024L749.736 238.36C750.49 237.606 751.327 236.768 752.081 236.014L751.746 236.35C752.5 235.596 753.337 234.758 754.091 234.005L753.756 234.339C754.51 233.586 755.347 232.748 756.101 231.994L755.766 232.329C756.52 231.576 757.274 230.822 758.111 229.984L757.776 230.319C758.53 229.566 759.284 228.812 760.121 227.974L759.786 228.309C760.54 227.555 761.294 226.802 762.131 225.964L761.88 226.299C762.634 225.545 763.388 224.792 764.141 224.038L763.89 224.289C764.644 223.535 765.398 222.782 766.151 222.028L765.9 222.279C766.654 221.525 767.408 220.772 768.162 220.018L767.91 220.269C768.664 219.515 769.418 218.762 770.172 218.008L769.92 218.259C770.674 217.505 771.428 216.751 772.182 215.998L771.93 216.249L774.192 213.988L773.94 214.239C774.694 213.485 775.448 212.731 776.202 211.978L775.867 212.229C776.62 212.229 777.374 212.229 778.212 212.229L777.96 212.061C776.872 214.071 776.118 216.416 774.527 217.924C759.2 232.832 743.79 247.572 728.295 262.229C727.207 263.234 725.364 263.569 723.857 264.239L724.024 264.406L724.108 264.49Z" fill="#EBEBEB"/>
<path d="M667.576 230.068C660.876 236.768 654.175 243.468 647.391 250.169L647.559 250.503V246.148L647.224 246.484C647.978 245.73 648.815 244.892 649.569 244.138L649.234 244.474C649.988 243.72 650.825 242.882 651.579 242.128L651.244 242.463C651.998 241.71 652.835 240.872 653.589 240.118L653.254 240.453C654.008 239.7 654.846 238.862 655.599 238.108L655.264 238.443C656.018 237.69 656.855 236.852 657.609 236.098L657.274 236.433C658.028 235.679 658.865 234.842 659.619 234.088L659.284 234.423C660.038 233.669 660.792 232.916 661.629 232.078L661.294 232.413C662.048 231.659 662.886 230.822 663.639 230.068L663.304 230.319C664.728 230.319 666.236 230.319 667.66 230.319L667.576 229.984V230.068Z" fill="#EBEBEB"/>
<path d="M647.391 250.169C643.287 253.519 639.183 256.869 634.995 260.219L635.331 260.471C638.011 257.037 640.774 253.603 643.455 250.169L643.036 250.504C644.46 250.504 645.967 250.504 647.391 250.504L647.224 250.169H647.391Z" fill="#EBEBEB"/>
<path d="M671.262 302.514C669.838 304.357 668.33 306.199 666.906 308.042V308.209C668.498 306.367 670.005 304.524 671.429 302.765L671.262 302.514Z" fill="#EBEBEB"/>
<path d="M679.217 299.918C680.557 298.076 681.814 296.149 683.154 294.307L682.902 294.139C681.646 296.065 680.39 297.908 679.134 299.834L679.217 299.918Z" fill="#EBEBEB"/>
<path d="M679.134 299.833C676.538 300.755 673.942 301.592 671.262 302.514L671.429 302.765C673.942 301.844 676.538 300.839 679.134 299.917V299.833Z" fill="#EBEBEB"/>
<path d="M638.846 322.362C637.925 323.451 637.004 324.624 636.083 325.713C635.831 325.378 635.496 325.042 635.245 324.624C636.501 323.954 637.841 323.2 639.098 322.53L638.846 322.279V322.362Z" fill="#EBEBEB"/>
<path d="M643.621 317.254C644.124 320.855 642.784 322.782 638.848 322.363L639.099 322.614C640.607 320.855 642.114 319.013 643.621 317.254Z" fill="#EBEBEB"/>
<path d="M690.191 291.71C687.762 292.547 685.333 293.301 682.904 294.055L683.155 294.222C685.5 293.385 687.929 292.631 690.274 291.877V291.71H690.191Z" fill="#EBEBEB"/>
<path d="M659.705 306.869L660.542 309.884C660.542 309.884 659.537 309.465 659.537 309.214C659.537 308.46 659.705 307.622 659.788 306.869H659.705Z" fill="#EBEBEB"/>
<path d="M666.907 308.041C664.478 307.622 662.134 307.287 659.705 306.869C662.134 307.287 664.478 307.622 666.907 308.125V308.041Z" fill="#EBEBEB"/>
<path d="M651.075 317.84C650.908 317.086 650.74 316.333 650.908 317.086C650.908 316.333 650.908 317.087 650.908 317.757H650.992L651.075 317.84Z" fill="#EBEBEB"/>
<path d="M650.91 317.757C648.481 317.589 646.052 317.421 643.539 317.254C645.968 317.421 648.481 317.589 650.91 317.757Z" fill="#EBEBEB"/>
<path d="M721.259 266.081C722.181 265.579 723.102 264.992 724.107 264.49L723.94 264.323C723.102 264.825 722.348 265.328 721.511 265.83L721.259 266.081Z" fill="#EBEBEB"/>
<path d="M721.511 265.83V266.5L721.259 266.081L721.511 265.83Z" fill="#EBEBEB"/>
<path d="M712.803 272.781C712.803 272.781 713.473 272.362 713.808 272.195C713.473 272.195 713.138 272.362 712.886 272.362V272.781H712.803Z" fill="#EBEBEB"/>
<path d="M712.886 272.363C712.886 272.363 713.138 272.698 713.305 272.865C713.138 272.865 712.97 272.782 712.803 272.698V272.279L712.886 272.363Z" fill="#EBEBEB"/>
<path d="M691.612 288.025L691.78 287.606L691.361 287.774L691.612 288.025Z" fill="#EBEBEB"/>
<path d="M690.272 291.961C690.69 290.705 691.193 289.365 691.612 288.109L691.36 287.774C690.942 289.03 690.523 290.37 690.188 291.71V291.961H690.272Z" fill="#EBEBEB"/>
<path d="M532.817 4.52301C532.817 4.52301 532.984 4.6905 533.152 4.77426L532.817 4.52301Z" fill="#EBEBEB"/>
<path d="M777.878 210.051C777.878 210.721 777.878 211.391 777.878 212.061L778.129 212.229C778.129 211.475 778.129 210.637 778.129 209.884L777.878 210.051Z" fill="#EBEBEB"/>
<path d="M628.88 328.644H629.215L628.629 328.56L628.88 328.644Z" fill="#EBEBEB"/>
<path d="M533.07 4.69068C533.07 4.69068 532.735 4.69068 532.568 4.69068C532.568 4.69068 532.735 4.60676 532.735 4.52301L532.986 4.69068H533.07Z" fill="#EBEBEB"/>
<path d="M793.958 187.857C793.958 188.694 793.958 189.448 793.958 190.286H794.125C794.125 189.448 794.125 188.61 794.125 187.773H793.958V187.857Z" fill="#EBEBEB"/>
<path d="M333.988 447.07C333.235 447.07 332.481 447.07 331.643 447.07V447.321C332.481 447.321 333.318 447.321 334.072 447.321V447.07H333.988Z" fill="#EBEBEB"/>
<path d="M557.359 36.684C557.694 36.2653 558.029 35.763 558.28 35.3442C558.699 35.763 559.621 36.2655 559.537 36.6005C559.369 37.1867 558.783 37.6891 558.28 38.2754C557.945 37.7729 557.611 37.2704 557.276 36.7679L557.359 36.684Z" fill="#EBEBEB"/>
<path d="M432.065 387.271C431.73 386.517 431.311 385.763 430.976 385.093C431.311 385.093 431.563 384.926 431.898 384.842C431.898 385.68 431.898 386.601 431.898 387.439L432.149 387.271H432.065Z" fill="#EBEBEB"/>
</svg>
