<svg width="620" height="404" viewBox="0 0 620 404" fill="none" xmlns="http://www.w3.org/2000/svg">
<g clip-path="url(#clip0_6_3310)">
<rect width="620" height="404" fill="#01204C"/>
<g filter="url(#filter0_f_6_3310)">
<ellipse cx="432.654" cy="44.0647" rx="83.0628" ry="145.038" transform="rotate(-38.8361 432.654 44.0647)" fill="#F268EA"/>
<path d="M496.966 -7.70996C522.037 23.4323 537.489 57.4276 542.224 87.1978C546.961 116.984 540.96 142.429 523.293 156.652C505.626 170.875 479.486 171.305 451.398 160.317C423.326 149.336 393.413 126.982 368.342 95.8394C343.271 64.6971 327.818 30.7018 323.084 0.931635C318.347 -28.8544 324.348 -54.2993 342.015 -68.5223C359.682 -82.7454 385.821 -83.1754 413.909 -72.188C441.982 -61.2066 471.894 -38.8522 496.966 -7.70996Z" stroke="black"/>
</g>
<g filter="url(#filter1_f_6_3310)">
<circle cx="24.8755" cy="70.8754" r="145" transform="rotate(-38.8361 24.8755 70.8754)" fill="#2CA0E2"/>
<circle cx="24.8755" cy="70.8754" r="144.5" transform="rotate(-38.8361 24.8755 70.8754)" stroke="black"/>
</g>
<g filter="url(#filter2_f_6_3310)">
<circle cx="426.848" cy="400.577" r="149.959" transform="rotate(-38.8361 426.848 400.577)" fill="#6E48DE"/>
<circle cx="426.848" cy="400.577" r="149.459" transform="rotate(-38.8361 426.848 400.577)" stroke="black"/>
</g>
<circle opacity="0.1" cx="460.275" cy="33.2747" r="177.5" transform="rotate(-38.8361 460.275 33.2747)" stroke="white"/>
<circle opacity="0.1" cx="656.275" cy="306.275" r="177.5" transform="rotate(-38.8361 656.275 306.275)" stroke="white"/>
</g>
<defs>
<filter id="filter0_f_6_3310" x="141.027" y="-260.371" width="583.254" height="608.872" filterUnits="userSpaceOnUse" color-interpolation-filters="sRGB">
<feFlood flood-opacity="0" result="BackgroundImageFix"/>
<feBlend mode="normal" in="SourceGraphic" in2="BackgroundImageFix" result="shape"/>
<feGaussianBlur stdDeviation="90" result="effect1_foregroundBlur_6_3310"/>
</filter>
<filter id="filter1_f_6_3310" x="-360.13" y="-314.13" width="770.01" height="770.01" filterUnits="userSpaceOnUse" color-interpolation-filters="sRGB">
<feFlood flood-opacity="0" result="BackgroundImageFix"/>
<feBlend mode="normal" in="SourceGraphic" in2="BackgroundImageFix" result="shape"/>
<feGaussianBlur stdDeviation="120" result="effect1_foregroundBlur_6_3310"/>
</filter>
<filter id="filter2_f_6_3310" x="156.884" y="130.613" width="539.928" height="539.928" filterUnits="userSpaceOnUse" color-interpolation-filters="sRGB">
<feFlood flood-opacity="0" result="BackgroundImageFix"/>
<feBlend mode="normal" in="SourceGraphic" in2="BackgroundImageFix" result="shape"/>
<feGaussianBlur stdDeviation="60" result="effect1_foregroundBlur_6_3310"/>
</filter>
<clipPath id="clip0_6_3310">
<rect width="620" height="404" fill="white"/>
</clipPath>
</defs>
</svg>
