<svg width="383" height="406" viewBox="0 0 383 406" fill="none" xmlns="http://www.w3.org/2000/svg">
<g clip-path="url(#clip0_0_3)">
<path d="M192.566 405.919C186.276 405.898 180.014 405.088 173.926 403.508L172.726 403.176L171.613 402.618C131.371 382.442 97.421 355.791 70.7059 323.407C48.5914 296.442 31.3499 265.827 19.7567 232.937C5.89314 193.559 -0.776613 152.01 0.0658855 110.272C0.0828855 109.396 0.0972729 108.72 0.0972729 108.254C0.0972729 87.9645 11.3593 70.1623 28.7885 62.9C42.128 57.3419 163.244 7.59478 171.995 4.00041C188.475 -4.25731 206.057 2.63506 208.87 3.84035C215.181 6.4206 327.146 52.2153 351.341 63.7366C376.277 75.6107 382.93 96.9422 382.93 107.674C382.93 156.263 374.515 201.672 357.919 242.642C344.515 275.804 325.519 306.419 301.756 333.153C255.91 384.747 210.051 403.037 209.608 403.198C204.127 405.084 198.361 406.005 192.566 405.919ZM181.781 379.205C185.757 380.097 194.911 381.434 200.877 379.257C208.456 376.493 246.839 356.589 282.707 316.225C332.264 260.456 357.41 190.35 357.446 107.854C357.358 106.182 356.171 94.2618 340.385 86.745C316.659 75.4467 200.281 27.8601 199.108 27.3805L198.787 27.2442C196.348 26.2222 188.586 24.0695 183.236 26.8732L182.165 27.3726C180.868 27.9054 52.3016 80.7102 38.59 86.4233C28.9983 90.4198 25.5808 100.321 25.5808 108.254C25.5808 108.833 25.5658 109.677 25.5446 110.767C24.4488 167.214 37.511 306.113 181.781 379.205Z" fill="#845CF3"/>
<path d="M177.324 15.5861C177.324 15.5861 47.5894 68.8699 33.6892 74.6616C19.7891 80.4533 12.839 94.3534 12.839 108.254C12.839 122.154 2.41397 303.532 177.324 391.228C177.324 391.228 193.199 395.62 205.243 391.228C217.287 386.835 370.188 312.701 370.188 107.674C370.188 107.674 370.188 86.8242 345.863 75.2408C321.538 63.6574 203.929 15.5861 203.929 15.5861C203.929 15.5861 189.486 9.21518 177.324 15.5861Z" fill="#845CF3"/>
<path opacity="0.1" d="M191.224 57.2865V341.537C191.224 341.537 60.3312 278.53 61.4895 112.887L191.224 57.2865Z" fill="black"/>
<path d="M192.931 261.581L151.235 207.969L175.483 189.11L195.226 214.494L261.921 144.088L284.224 165.219L192.931 261.581Z" fill="white"/>
</g>
<defs>
<clipPath id="clip0_0_3">
<rect width="383" height="406" fill="white"/>
</clipPath>
</defs>
</svg>
