<svg width="100" height="100" viewBox="0 0 100 100" fill="none" xmlns="http://www.w3.org/2000/svg">
<g clip-path="url(#clip0_2_18)">
<path d="M83.3333 58.3333C84.9384 58.3341 86.4816 58.9524 87.6433 60.06C88.8049 61.1677 89.4959 62.6798 89.573 64.283C89.6501 65.8862 89.1075 67.4576 88.0576 68.6717C87.0077 69.8857 85.5309 70.6493 83.9333 70.8042L83.3333 70.8333H31.7542L37.7542 76.8333C38.8907 77.9658 39.5482 79.4919 39.5906 81.0957C39.6329 82.6996 39.0569 84.2583 37.9817 85.4491C36.9065 86.6399 35.4145 87.3717 33.8147 87.4929C32.2149 87.614 30.6298 87.1153 29.3875 86.1L28.9125 85.6708L12.9583 69.7125C8.9 65.6542 11.5417 58.8083 17.0875 58.3583L17.6708 58.3333H83.3333ZM62.25 14.3333C63.3432 13.2392 64.8033 12.5892 66.348 12.5092C67.8926 12.4291 69.4121 12.9247 70.6125 13.9L71.0875 14.3292L87.0417 30.2875C91.1 34.3458 88.4583 41.1917 82.9125 41.6417L82.3292 41.6667H16.6667C15.0616 41.6659 13.5184 41.0476 12.3567 39.94C11.1951 38.8323 10.5041 37.3202 10.427 35.717C10.3499 34.1138 10.8925 32.5424 11.9424 31.3283C12.9923 30.1143 14.4691 29.3507 16.0667 29.1958L16.6667 29.1667H68.2458L62.2458 23.1667C61.0754 21.9948 60.418 20.4063 60.418 18.75C60.418 17.0937 61.0796 15.5052 62.25 14.3333Z" fill="#699BF7"/>
</g>
<defs>
<clipPath id="clip0_2_18">
<rect width="100" height="100" fill="white"/>
</clipPath>
</defs>
</svg>
