<svg width="22" height="15" viewBox="0 0 22 15" fill="none" xmlns="http://www.w3.org/2000/svg">
<path fill-rule="evenodd" clip-rule="evenodd" d="M12.201 0.749696C10.8942 0.87762 9.43732 1.21164 8.13055 1.67359C7.68993 1.83705 6.91528 2.1 6.40447 2.27056C3.59105 3.20867 1.75127 4.64336 0.756308 6.68214C0.30147 7.62024 0.159329 8.20211 0.152222 9.13311C0.152222 10.3972 0.557314 11.3496 1.53717 12.3303C2.81552 13.6229 4.71304 14.3691 7.78942 14.7884C9.11751 14.9732 11.5481 14.9589 12.8975 14.7529C17.373 14.0706 20.5844 12.174 21.6007 9.61638C21.8636 8.95545 22.02 7.83345 21.9631 7.08724C21.9063 6.36944 21.6575 5.46065 21.3306 4.81392C20.4707 3.11628 18.6309 1.63095 16.7272 1.10504C15.4488 0.756803 13.6366 0.614666 12.2019 0.749696H12.201ZM15.2916 1.32536C18.2827 1.73756 20.7621 3.81897 21.3235 6.38365C21.4941 7.1583 21.4443 8.48639 21.224 9.13311C20.3499 11.6836 17.2602 13.5234 12.6914 14.227C11.5472 14.3975 8.8057 14.3975 7.61175 14.227C3.63369 13.6442 1.31775 12.1882 0.784736 9.93619C0.329898 8.00401 1.6802 5.46776 3.91796 4.0535C4.06721 3.96111 3.98903 4.07482 3.66923 4.43016C2.80219 5.37537 2.76665 5.70139 3.61237 4.9916C4.69261 4.07481 6.19127 3.07364 6.95881 2.74673C8.22294 2.1995 11.2993 1.90811 13.729 2.09289C14.6742 2.17107 16.4003 2.4056 17.1891 2.56906C17.5516 2.64723 17.381 2.48377 16.8551 2.25636C15.7535 1.7873 14.4112 1.54567 12.3725 1.46749C11.2709 1.42485 11.2069 1.41774 11.6618 1.36089C11.9389 1.33246 12.1948 1.29692 12.2303 1.28271C12.4009 1.22586 14.795 1.25429 15.2925 1.32536H15.2916Z" fill="white"/>
</svg>
