<svg width="266" height="73" viewBox="0 0 266 73" fill="none" xmlns="http://www.w3.org/2000/svg">
<g clip-path="url(#clip0_0_3)">
<path d="M29.4505 56.6026C28.3125 58.4141 29.2848 59.695 29.4284 61.2412C29.7157 64.3885 29.9698 68.5696 28.3456 71.6254C18.1073 70.9667 8.74557 68.2738 0.260307 63.5468C0.135535 63.4784 0.0472605 63.3733 0.0142496 63.2537C-0.0187612 63.1341 0.00609043 63.0095 0.0835262 62.9063L9.56316 49.9969C9.59178 49.9579 9.62988 49.9242 9.67517 49.8979C9.72046 49.8716 9.77201 49.8532 9.82671 49.8438C9.88141 49.8344 9.93813 49.8342 9.99347 49.8432C10.0488 49.8522 10.1016 49.8703 10.1487 49.8963C16.0634 53.1412 22.4973 55.3766 29.4505 56.6026Z" fill="url(#paint0_linear_0_3)"/>
<path d="M49.0616 47.6822C52.192 49.7926 54.3244 51.9853 55.4587 54.2604C58.9279 61.2137 56.733 66.6575 48.8738 70.5916C42.2668 72.0127 35.424 72.3574 28.3456 71.6254C29.9698 68.5696 29.7157 64.3885 29.4284 61.2412C29.2848 59.695 28.3125 58.4141 29.4505 56.6026C34.2676 57.2003 39.0553 57.1027 43.8136 56.3098C45.8981 55.9621 47.6179 55.1082 48.9732 53.748C50.7852 51.9365 50.8146 49.9146 49.0616 47.6822Z" fill="url(#paint1_linear_0_3)"/>
<path d="M34.1461 0.106758C34.5733 1.00337 34.4812 1.84204 33.8699 2.62277C24.1693 5.48644 21.2856 14.1141 24.4897 21.6163C26.5226 25.8158 32.3121 26.7033 38.0573 27.5175C37.4165 33.0436 37.2728 38.6032 37.6264 44.1964C20.7885 43.0619 2.65783 38.8533 3.08873 21.9823C3.44228 8.02074 18.2804 0.170802 34.1461 0.106758Z" fill="url(#paint2_linear_0_3)"/>
<path d="M38.0573 27.5175C51.7132 29.0271 71.8436 32.8057 71.9983 47.5815C72.1309 60.189 64.4227 67.859 48.8738 70.5916C56.7329 66.6575 58.9279 61.2137 55.4587 54.2604C54.3244 51.9853 52.192 49.7926 49.0616 47.6822C45.4745 45.8097 41.6628 44.6477 37.6264 44.1964C37.2728 38.6032 37.4165 33.0436 38.0573 27.5175Z" fill="url(#paint3_linear_0_3)"/>
<path d="M33.8699 2.62276C36.4111 5.63283 34.4776 11.4334 35.8034 15.1296C30.6769 15.2211 24.9979 16.7765 24.4897 21.6163C21.2856 14.1141 24.1693 5.48644 33.8699 2.62276Z" fill="url(#paint4_linear_0_3)"/>
<path d="M34.1461 0.106757C47.0876 -0.545881 59.1489 1.75665 70.33 7.01434C70.4608 7.07749 70.558 7.17851 70.6012 7.29621C70.6445 7.41391 70.6304 7.53914 70.562 7.64563L62.121 20.4818C62.0873 20.5334 62.0409 20.5785 61.9848 20.6145C61.9287 20.6505 61.864 20.6766 61.7947 20.6912C61.7254 20.7057 61.6529 20.7085 61.5817 20.6992C61.5105 20.69 61.4421 20.6689 61.3807 20.6374C53.5363 16.7033 45.0105 14.8673 35.8034 15.1296C34.4776 11.4334 36.4111 5.63283 33.8699 2.62276C34.4812 1.84204 34.5733 1.00337 34.1461 0.106757Z" fill="url(#paint5_linear_0_3)"/>
<path d="M81.836 42.632H84.784C84.872 43.292 85.1433 43.8713 85.598 44.37C86.0673 44.8687 86.6833 45.2573 87.446 45.536C88.2087 45.8 89.0887 45.932 90.086 45.932C91.5673 45.932 92.7407 45.7047 93.606 45.25C94.4713 44.7807 94.904 44.15 94.904 43.358C94.904 42.7127 94.6547 42.2287 94.156 41.906C93.6573 41.5833 92.7553 41.3413 91.45 41.18L87.886 40.718C85.8913 40.454 84.4393 39.9627 83.53 39.244C82.6353 38.5107 82.188 37.4767 82.188 36.142C82.188 35.13 82.4887 34.2573 83.09 33.524C83.706 32.776 84.5713 32.204 85.686 31.808C86.8007 31.3973 88.106 31.192 89.602 31.192C91.0833 31.192 92.396 31.412 93.54 31.852C94.684 32.292 95.5933 32.908 96.268 33.7C96.9573 34.4773 97.3313 35.394 97.39 36.45H94.442C94.3687 35.8633 94.1193 35.3573 93.694 34.932C93.2833 34.5067 92.726 34.1767 92.022 33.942C91.318 33.6927 90.4893 33.568 89.536 33.568C88.1867 33.568 87.1087 33.788 86.302 34.228C85.4953 34.668 85.092 35.2693 85.092 36.032C85.092 36.6187 85.3267 37.0733 85.796 37.396C86.28 37.704 87.116 37.9387 88.304 38.1L91.912 38.606C93.3933 38.8113 94.5593 39.09 95.41 39.442C96.2753 39.7793 96.8913 40.2413 97.258 40.828C97.6247 41.4 97.808 42.1407 97.808 43.05C97.808 44.106 97.4853 45.03 96.84 45.822C96.1947 46.614 95.2853 47.23 94.112 47.67C92.9533 48.0953 91.5967 48.308 90.042 48.308C88.458 48.308 87.0573 48.0733 85.84 47.604C84.6373 47.12 83.684 46.4527 82.98 45.602C82.276 44.7513 81.8947 43.7613 81.836 42.632ZM98.7702 37.748V36.45L101.432 35.768L102.62 32.292H104.292V35.548H110.078V37.748H104.292V43.138C104.292 44.1793 104.512 44.9127 104.952 45.338C105.407 45.7487 106.14 45.954 107.152 45.954C107.797 45.954 108.369 45.888 108.868 45.756C109.367 45.6093 109.843 45.404 110.298 45.14V47.494C109.917 47.6847 109.374 47.868 108.67 48.044C107.981 48.22 107.269 48.308 106.536 48.308C105.319 48.308 104.336 48.11 103.588 47.714C102.84 47.3033 102.29 46.746 101.938 46.042C101.601 45.3233 101.432 44.502 101.432 43.578V37.748H98.7702ZM123.611 48L123.127 43.38L123.699 41.774L123.127 40.19L123.611 35.548H126.559L125.899 41.774L126.559 48H123.611ZM124.491 41.774C124.212 43.0793 123.75 44.2233 123.105 45.206C122.459 46.1887 121.66 46.9513 120.707 47.494C119.768 48.0367 118.719 48.308 117.561 48.308C116.343 48.308 115.265 48.0367 114.327 47.494C113.388 46.9367 112.655 46.1667 112.127 45.184C111.599 44.2013 111.335 43.0647 111.335 41.774C111.335 40.4687 111.599 39.332 112.127 38.364C112.655 37.3813 113.388 36.6187 114.327 36.076C115.265 35.5187 116.343 35.24 117.561 35.24C118.719 35.24 119.768 35.5113 120.707 36.054C121.66 36.5967 122.459 37.3593 123.105 38.342C123.765 39.31 124.227 40.454 124.491 41.774ZM114.239 41.774C114.239 42.61 114.407 43.3507 114.745 43.996C115.097 44.6267 115.573 45.1253 116.175 45.492C116.776 45.844 117.465 46.02 118.243 46.02C119.035 46.02 119.768 45.844 120.443 45.492C121.117 45.1253 121.711 44.6267 122.225 43.996C122.753 43.3507 123.171 42.61 123.479 41.774C123.171 40.938 122.753 40.2047 122.225 39.574C121.711 38.9287 121.117 38.43 120.443 38.078C119.768 37.7113 119.035 37.528 118.243 37.528C117.465 37.528 116.776 37.7113 116.175 38.078C115.573 38.43 115.097 38.9287 114.745 39.574C114.407 40.2047 114.239 40.938 114.239 41.774ZM132.171 45.514L131.335 45.206L139.255 35.548H142.555L131.973 48H129.311V31.06H132.171V45.514ZM135.713 41.84L137.715 40.036L142.929 48H139.563L135.713 41.84ZM150.546 48.308C149.094 48.308 147.804 48.0367 146.674 47.494C145.545 46.9367 144.658 46.1667 144.012 45.184C143.367 44.2013 143.044 43.0573 143.044 41.752C143.044 40.4613 143.345 39.332 143.946 38.364C144.562 37.3813 145.406 36.6187 146.476 36.076C147.562 35.5187 148.801 35.24 150.194 35.24C151.588 35.24 152.79 35.5553 153.802 36.186C154.829 36.802 155.621 37.6747 156.178 38.804C156.736 39.9333 157.014 41.2607 157.014 42.786H145.288V40.608H155.584L154.154 41.422C154.11 40.6007 153.912 39.8967 153.56 39.31C153.223 38.7233 152.761 38.276 152.174 37.968C151.602 37.6453 150.92 37.484 150.128 37.484C149.292 37.484 148.559 37.6527 147.928 37.99C147.312 38.3273 146.828 38.804 146.476 39.42C146.124 40.0213 145.948 40.74 145.948 41.576C145.948 42.5 146.154 43.2993 146.564 43.974C146.99 44.6487 147.584 45.1693 148.346 45.536C149.124 45.888 150.04 46.064 151.096 46.064C152.05 46.064 153.025 45.9173 154.022 45.624C155.02 45.316 155.9 44.8907 156.662 44.348V46.416C155.9 47.0027 154.968 47.4647 153.868 47.802C152.783 48.1393 151.676 48.308 150.546 48.308Z" fill="white"/>
<path d="M162.836 42.632H165.784C165.872 43.292 166.143 43.8713 166.598 44.37C167.067 44.8687 167.683 45.2573 168.446 45.536C169.209 45.8 170.089 45.932 171.086 45.932C172.567 45.932 173.741 45.7047 174.606 45.25C175.471 44.7807 175.904 44.15 175.904 43.358C175.904 42.7127 175.655 42.2287 175.156 41.906C174.657 41.5833 173.755 41.3413 172.45 41.18L168.886 40.718C166.891 40.454 165.439 39.9627 164.53 39.244C163.635 38.5107 163.188 37.4767 163.188 36.142C163.188 35.13 163.489 34.2573 164.09 33.524C164.706 32.776 165.571 32.204 166.686 31.808C167.801 31.3973 169.106 31.192 170.602 31.192C172.083 31.192 173.396 31.412 174.54 31.852C175.684 32.292 176.593 32.908 177.268 33.7C177.957 34.4773 178.331 35.394 178.39 36.45H175.442C175.369 35.8633 175.119 35.3573 174.694 34.932C174.283 34.5067 173.726 34.1767 173.022 33.942C172.318 33.6927 171.489 33.568 170.536 33.568C169.187 33.568 168.109 33.788 167.302 34.228C166.495 34.668 166.092 35.2693 166.092 36.032C166.092 36.6187 166.327 37.0733 166.796 37.396C167.28 37.704 168.116 37.9387 169.304 38.1L172.912 38.606C174.393 38.8113 175.559 39.09 176.41 39.442C177.275 39.7793 177.891 40.2413 178.258 40.828C178.625 41.4 178.808 42.1407 178.808 43.05C178.808 44.106 178.485 45.03 177.84 45.822C177.195 46.614 176.285 47.23 175.112 47.67C173.953 48.0953 172.597 48.308 171.042 48.308C169.458 48.308 168.057 48.0733 166.84 47.604C165.637 47.12 164.684 46.4527 163.98 45.602C163.276 44.7513 162.895 43.7613 162.836 42.632ZM181.178 31.06H184.038V48H181.178V31.06ZM188.988 35.24C190.161 35.24 191.159 35.4747 191.98 35.944C192.801 36.4133 193.425 37.088 193.85 37.968C194.29 38.8333 194.51 39.882 194.51 41.114V48H191.65V41.576C191.65 40.2707 191.342 39.288 190.726 38.628C190.125 37.9533 189.237 37.616 188.064 37.616C187.257 37.616 186.546 37.7993 185.93 38.166C185.329 38.518 184.859 39.0167 184.522 39.662C184.199 40.3073 184.038 41.0627 184.038 41.928L183.026 41.378C183.158 40.0873 183.495 38.9873 184.038 38.078C184.581 37.1687 185.277 36.472 186.128 35.988C186.979 35.4893 187.932 35.24 188.988 35.24ZM208.993 48L208.509 43.38L209.081 41.774L208.509 40.19L208.993 35.548H211.941L211.281 41.774L211.941 48H208.993ZM209.873 41.774C209.595 43.0793 209.133 44.2233 208.487 45.206C207.842 46.1887 207.043 46.9513 206.089 47.494C205.151 48.0367 204.102 48.308 202.943 48.308C201.726 48.308 200.648 48.0367 199.709 47.494C198.771 46.9367 198.037 46.1667 197.509 45.184C196.981 44.2013 196.717 43.0647 196.717 41.774C196.717 40.4687 196.981 39.332 197.509 38.364C198.037 37.3813 198.771 36.6187 199.709 36.076C200.648 35.5187 201.726 35.24 202.943 35.24C204.102 35.24 205.151 35.5113 206.089 36.054C207.043 36.5967 207.842 37.3593 208.487 38.342C209.147 39.31 209.609 40.454 209.873 41.774ZM199.621 41.774C199.621 42.61 199.79 43.3507 200.127 43.996C200.479 44.6267 200.956 45.1253 201.557 45.492C202.159 45.844 202.848 46.02 203.625 46.02C204.417 46.02 205.151 45.844 205.825 45.492C206.5 45.1253 207.094 44.6267 207.607 43.996C208.135 43.3507 208.553 42.61 208.861 41.774C208.553 40.938 208.135 40.2047 207.607 39.574C207.094 38.9287 206.5 38.43 205.825 38.078C205.151 37.7113 204.417 37.528 203.625 37.528C202.848 37.528 202.159 37.7113 201.557 38.078C200.956 38.43 200.479 38.9287 200.127 39.574C199.79 40.2047 199.621 40.938 199.621 41.774ZM214.1 35.548H216.96L217.708 40.08V48H214.848V39.53L214.1 35.548ZM224.022 35.46V37.968C223.699 37.88 223.347 37.814 222.966 37.77C222.584 37.726 222.225 37.704 221.888 37.704C221.081 37.704 220.362 37.88 219.732 38.232C219.101 38.584 218.602 39.112 218.236 39.816C217.884 40.5053 217.708 41.356 217.708 42.368L217.048 41.554C217.106 40.674 217.253 39.8527 217.488 39.09C217.737 38.3127 218.074 37.638 218.5 37.066C218.94 36.494 219.475 36.0467 220.106 35.724C220.736 35.4013 221.47 35.24 222.306 35.24C222.599 35.24 222.9 35.262 223.208 35.306C223.516 35.3353 223.787 35.3867 224.022 35.46ZM225.823 35.46L227.253 35.724L228.683 35.46V48H225.823V35.46ZM227.253 33.898C226.71 33.898 226.263 33.7513 225.911 33.458C225.559 33.15 225.383 32.754 225.383 32.27C225.383 31.786 225.559 31.3973 225.911 31.104C226.263 30.796 226.71 30.642 227.253 30.642C227.81 30.642 228.257 30.796 228.595 31.104C228.947 31.3973 229.123 31.786 229.123 32.27C229.123 32.754 228.947 33.15 228.595 33.458C228.257 33.7513 227.81 33.898 227.253 33.898ZM243.325 48L242.841 43.38L243.413 41.774L242.841 40.19L243.325 35.548H246.273L245.613 41.774L246.273 48H243.325ZM244.205 41.774C243.927 43.0793 243.465 44.2233 242.819 45.206C242.174 46.1887 241.375 46.9513 240.421 47.494C239.483 48.0367 238.434 48.308 237.275 48.308C236.058 48.308 234.98 48.0367 234.041 47.494C233.103 46.9367 232.369 46.1667 231.841 45.184C231.313 44.2013 231.049 43.0647 231.049 41.774C231.049 40.4687 231.313 39.332 231.841 38.364C232.369 37.3813 233.103 36.6187 234.041 36.076C234.98 35.5187 236.058 35.24 237.275 35.24C238.434 35.24 239.483 35.5113 240.421 36.054C241.375 36.5967 242.174 37.3593 242.819 38.342C243.479 39.31 243.941 40.454 244.205 41.774ZM233.953 41.774C233.953 42.61 234.122 43.3507 234.459 43.996C234.811 44.6267 235.288 45.1253 235.889 45.492C236.491 45.844 237.18 46.02 237.957 46.02C238.749 46.02 239.483 45.844 240.157 45.492C240.832 45.1253 241.426 44.6267 241.939 43.996C242.467 43.3507 242.885 42.61 243.193 41.774C242.885 40.938 242.467 40.2047 241.939 39.574C241.426 38.9287 240.832 38.43 240.157 38.078C239.483 37.7113 238.749 37.528 237.957 37.528C237.18 37.528 236.491 37.7113 235.889 38.078C235.288 38.43 234.811 38.9287 234.459 39.574C234.122 40.2047 233.953 40.938 233.953 41.774ZM249.026 31.06H251.886V48H249.026V31.06ZM256.836 35.24C258.009 35.24 259.006 35.4747 259.828 35.944C260.649 36.4133 261.272 37.088 261.698 37.968C262.138 38.8333 262.358 39.882 262.358 41.114V48H259.498V41.576C259.498 40.2707 259.19 39.288 258.574 38.628C257.972 37.9533 257.085 37.616 255.912 37.616C255.105 37.616 254.394 37.7993 253.778 38.166C253.176 38.518 252.707 39.0167 252.37 39.662C252.047 40.3073 251.886 41.0627 251.886 41.928L250.874 41.378C251.006 40.0873 251.343 38.9873 251.886 38.078C252.428 37.1687 253.125 36.472 253.976 35.988C254.826 35.4893 255.78 35.24 256.836 35.24Z" fill="#5CE1E6"/>
</g>
<defs>
<linearGradient id="paint0_linear_0_3" x1="0" y1="59.8404" x2="57.0523" y2="59.8404" gradientUnits="userSpaceOnUse">
<stop stop-color="#0052D4"/>
<stop offset="0.5" stop-color="#4364F7"/>
<stop offset="1" stop-color="#6FB1FC"/>
</linearGradient>
<linearGradient id="paint1_linear_0_3" x1="0" y1="59.8404" x2="57.0523" y2="59.8404" gradientUnits="userSpaceOnUse">
<stop stop-color="#0052D4"/>
<stop offset="0.5" stop-color="#4364F7"/>
<stop offset="1" stop-color="#6FB1FC"/>
</linearGradient>
<linearGradient id="paint2_linear_0_3" x1="3.08119" y1="35.3492" x2="72" y2="35.3492" gradientUnits="userSpaceOnUse">
<stop stop-color="#5433FF"/>
<stop offset="0.5" stop-color="#20BDFF"/>
<stop offset="1" stop-color="#A5FECB"/>
</linearGradient>
<linearGradient id="paint3_linear_0_3" x1="3.08119" y1="35.3492" x2="72" y2="35.3492" gradientUnits="userSpaceOnUse">
<stop stop-color="#5433FF"/>
<stop offset="0.5" stop-color="#20BDFF"/>
<stop offset="1" stop-color="#A5FECB"/>
</linearGradient>
<linearGradient id="paint4_linear_0_3" x1="23.2379" y1="10.8075" x2="70.6259" y2="10.8075" gradientUnits="userSpaceOnUse">
<stop stop-color="#0052D4"/>
<stop offset="0.5" stop-color="#4364F7"/>
<stop offset="1" stop-color="#6FB1FC"/>
</linearGradient>
<linearGradient id="paint5_linear_0_3" x1="23.2379" y1="10.8075" x2="70.6259" y2="10.8075" gradientUnits="userSpaceOnUse">
<stop stop-color="#0052D4"/>
<stop offset="0.5" stop-color="#4364F7"/>
<stop offset="1" stop-color="#6FB1FC"/>
</linearGradient>
<clipPath id="clip0_0_3">
<rect width="266" height="73" fill="white"/>
</clipPath>
</defs>
</svg>
